# MagicaVoxel @ Ephtracy

# material
mtllib Door.mtl
usemtl palette

# normals
vn -1 0 0
vn 1 0 0
vn 0 0 1
vn 0 0 -1
vn 0 -1 0
vn 0 1 0

# texcoords
vt 0.0488281 0.5
vt 0.0605469 0.5
vt 0.431641 0.5

# verts
v -8 0 2
v -8 0 -2
v -8 27 2
v -8 27 -2
v 3 11 3
v 3 11 2
v 3 11 -2
v 3 11 -3
v 3 12 2
v 3 12 -2
v 3 13 2
v 3 13 -2
v 3 14 3
v 3 14 2
v 3 14 -2
v 3 14 -3
v 4 10 3
v 4 10 2
v 4 10 -2
v 4 10 -3
v 4 11 3
v 4 11 2
v 4 11 -2
v 4 11 -3
v 4 14 3
v 4 14 2
v 4 14 -2
v 4 14 -3
v 4 15 3
v 4 15 2
v 4 15 -2
v 4 15 -3
v 7 10 3
v 7 10 2
v 7 10 -2
v 7 10 -3
v 7 11 3
v 7 11 2
v 7 11 -2
v 7 11 -3
v 7 14 3
v 7 14 2
v 7 14 -2
v 7 14 -3
v 7 15 3
v 7 15 2
v 7 15 -2
v 7 15 -3
v 8 0 2
v 8 0 -2
v 8 11 3
v 8 11 2
v 8 11 -2
v 8 11 -3
v 8 14 3
v 8 14 2
v 8 14 -2
v 8 14 -3
v 8 27 2
v 8 27 -2
v 3 11 3
v 3 14 3
v 4 10 3
v 4 11 3
v 4 14 3
v 4 15 3
v 7 10 3
v 7 11 3
v 7 14 3
v 7 15 3
v 8 11 3
v 8 14 3
v -8 0 2
v -8 27 2
v -7 5 2
v -7 6 2
v -7 24 2
v -7 25 2
v -6 0 2
v -6 1 2
v -6 3 2
v -6 5 2
v -6 6 2
v -6 8 2
v -6 10 2
v -6 12 2
v -6 18 2
v -6 20 2
v -6 22 2
v -6 24 2
v -6 25 2
v -6 27 2
v -5 1 2
v -5 2 2
v -5 4 2
v -5 5 2
v -5 6 2
v -5 7 2
v -5 12 2
v -5 14 2
v -5 16 2
v -5 18 2
v -5 23 2
v -5 24 2
v -5 25 2
v -5 26 2
v -4 0 2
v -4 1 2
v -4 2 2
v -4 3 2
v -4 7 2
v -4 8 2
v -4 10 2
v -4 12 2
v -4 13 2
v -4 17 2
v -4 18 2
v -4 20 2
v -4 22 2
v -4 23 2
v -3 1 2
v -3 4 2
v -3 6 2
v -3 8 2
v -3 14 2
v -3 16 2
v -3 22 2
v -3 24 2
v -3 26 2
v -3 27 2
v -2 0 2
v -2 6 2
v -2 7 2
v -2 12 2
v -2 18 2
v -2 23 2
v -2 24 2
v -2 27 2
v -1 0 2
v -1 7 2
v -1 13 2
v -1 17 2
v -1 23 2
v -1 27 2
v 1 0 2
v 1 7 2
v 1 13 2
v 1 17 2
v 1 23 2
v 1 27 2
v 2 0 2
v 2 6 2
v 2 7 2
v 2 12 2
v 2 18 2
v 2 23 2
v 2 24 2
v 2 27 2
v 3 1 2
v 3 4 2
v 3 6 2
v 3 8 2
v 3 11 2
v 3 12 2
v 3 13 2
v 3 14 2
v 3 16 2
v 3 22 2
v 3 24 2
v 3 26 2
v 3 27 2
v 4 0 2
v 4 1 2
v 4 2 2
v 4 3 2
v 4 7 2
v 4 8 2
v 4 10 2
v 4 11 2
v 4 14 2
v 4 15 2
v 4 17 2
v 4 18 2
v 4 20 2
v 4 22 2
v 4 23 2
v 5 1 2
v 5 2 2
v 5 4 2
v 5 5 2
v 5 6 2
v 5 7 2
v 5 16 2
v 5 18 2
v 5 23 2
v 5 24 2
v 5 25 2
v 5 26 2
v 6 0 2
v 6 1 2
v 6 3 2
v 6 5 2
v 6 6 2
v 6 8 2
v 6 18 2
v 6 20 2
v 6 22 2
v 6 24 2
v 6 25 2
v 6 27 2
v 7 5 2
v 7 6 2
v 7 10 2
v 7 11 2
v 7 14 2
v 7 15 2
v 7 24 2
v 7 25 2
v 8 0 2
v 8 11 2
v 8 14 2
v 8 27 2
v -8 0 -2
v -8 27 -2
v -7 5 -2
v -7 6 -2
v -7 24 -2
v -7 25 -2
v -6 0 -2
v -6 1 -2
v -6 3 -2
v -6 5 -2
v -6 6 -2
v -6 8 -2
v -6 10 -2
v -6 12 -2
v -6 18 -2
v -6 20 -2
v -6 22 -2
v -6 24 -2
v -6 25 -2
v -6 27 -2
v -5 1 -2
v -5 2 -2
v -5 4 -2
v -5 5 -2
v -5 6 -2
v -5 7 -2
v -5 12 -2
v -5 14 -2
v -5 16 -2
v -5 18 -2
v -5 23 -2
v -5 24 -2
v -5 25 -2
v -5 26 -2
v -4 0 -2
v -4 1 -2
v -4 2 -2
v -4 3 -2
v -4 7 -2
v -4 8 -2
v -4 10 -2
v -4 12 -2
v -4 13 -2
v -4 17 -2
v -4 18 -2
v -4 20 -2
v -4 22 -2
v -4 23 -2
v -3 1 -2
v -3 4 -2
v -3 6 -2
v -3 8 -2
v -3 14 -2
v -3 16 -2
v -3 22 -2
v -3 24 -2
v -3 26 -2
v -3 27 -2
v -2 0 -2
v -2 6 -2
v -2 7 -2
v -2 12 -2
v -2 18 -2
v -2 23 -2
v -2 24 -2
v -2 27 -2
v -1 0 -2
v -1 7 -2
v -1 13 -2
v -1 17 -2
v -1 23 -2
v -1 27 -2
v 1 0 -2
v 1 7 -2
v 1 13 -2
v 1 17 -2
v 1 23 -2
v 1 27 -2
v 2 0 -2
v 2 6 -2
v 2 7 -2
v 2 12 -2
v 2 18 -2
v 2 23 -2
v 2 24 -2
v 2 27 -2
v 3 1 -2
v 3 4 -2
v 3 6 -2
v 3 8 -2
v 3 11 -2
v 3 12 -2
v 3 13 -2
v 3 14 -2
v 3 16 -2
v 3 22 -2
v 3 24 -2
v 3 26 -2
v 3 27 -2
v 4 0 -2
v 4 1 -2
v 4 2 -2
v 4 3 -2
v 4 7 -2
v 4 8 -2
v 4 10 -2
v 4 11 -2
v 4 14 -2
v 4 15 -2
v 4 17 -2
v 4 18 -2
v 4 20 -2
v 4 22 -2
v 4 23 -2
v 5 1 -2
v 5 2 -2
v 5 4 -2
v 5 5 -2
v 5 6 -2
v 5 7 -2
v 5 16 -2
v 5 18 -2
v 5 23 -2
v 5 24 -2
v 5 25 -2
v 5 26 -2
v 6 0 -2
v 6 1 -2
v 6 3 -2
v 6 5 -2
v 6 6 -2
v 6 8 -2
v 6 18 -2
v 6 20 -2
v 6 22 -2
v 6 24 -2
v 6 25 -2
v 6 27 -2
v 7 5 -2
v 7 6 -2
v 7 10 -2
v 7 11 -2
v 7 14 -2
v 7 15 -2
v 7 24 -2
v 7 25 -2
v 8 0 -2
v 8 11 -2
v 8 14 -2
v 8 27 -2
v 3 11 -3
v 3 14 -3
v 4 10 -3
v 4 11 -3
v 4 14 -3
v 4 15 -3
v 7 10 -3
v 7 11 -3
v 7 14 -3
v 7 15 -3
v 8 11 -3
v 8 14 -3
v -8 0 2
v -6 0 2
v -4 0 2
v -2 0 2
v -1 0 2
v 1 0 2
v 2 0 2
v 4 0 2
v 6 0 2
v 8 0 2
v -6 0 1
v -4 0 1
v -2 0 1
v -1 0 1
v 1 0 1
v 2 0 1
v 4 0 1
v 6 0 1
v -6 0 -1
v -4 0 -1
v -2 0 -1
v -1 0 -1
v 1 0 -1
v 2 0 -1
v 4 0 -1
v 6 0 -1
v -8 0 -2
v -6 0 -2
v -4 0 -2
v -2 0 -2
v -1 0 -2
v 1 0 -2
v 2 0 -2
v 4 0 -2
v 6 0 -2
v 8 0 -2
v 4 10 3
v 7 10 3
v 4 10 2
v 7 10 2
v 4 10 -2
v 7 10 -2
v 4 10 -3
v 7 10 -3
v 3 11 3
v 4 11 3
v 7 11 3
v 8 11 3
v 3 11 2
v 4 11 2
v 7 11 2
v 8 11 2
v 3 11 -2
v 4 11 -2
v 7 11 -2
v 8 11 -2
v 3 11 -3
v 4 11 -3
v 7 11 -3
v 8 11 -3
v 3 14 3
v 4 14 3
v 7 14 3
v 8 14 3
v 3 14 2
v 4 14 2
v 7 14 2
v 8 14 2
v 3 14 -2
v 4 14 -2
v 7 14 -2
v 8 14 -2
v 3 14 -3
v 4 14 -3
v 7 14 -3
v 8 14 -3
v 4 15 3
v 7 15 3
v 4 15 2
v 7 15 2
v 4 15 -2
v 7 15 -2
v 4 15 -3
v 7 15 -3
v -8 27 2
v -6 27 2
v -3 27 2
v -2 27 2
v -1 27 2
v 1 27 2
v 2 27 2
v 3 27 2
v 6 27 2
v 8 27 2
v -6 27 1
v -3 27 1
v -2 27 1
v -1 27 1
v 1 27 1
v 2 27 1
v 3 27 1
v 6 27 1
v -6 27 -1
v -3 27 -1
v -2 27 -1
v -1 27 -1
v 1 27 -1
v 2 27 -1
v 3 27 -1
v 6 27 -1
v -8 27 -2
v -6 27 -2
v -3 27 -2
v -2 27 -2
v -1 27 -2
v 1 27 -2
v 2 27 -2
v 3 27 -2
v 6 27 -2
v 8 27 -2

# faces
f 3/3/1 2/3/1 1/3/1
f 4/3/1 2/3/1 3/3/1
f 9/2/1 6/2/1 5/2/1
f 10/2/1 8/2/1 7/2/1
f 11/2/1 9/2/1 5/2/1
f 12/2/1 8/2/1 10/2/1
f 13/2/1 11/2/1 5/2/1
f 14/2/1 11/2/1 13/2/1
f 15/2/1 8/2/1 12/2/1
f 16/2/1 8/2/1 15/2/1
f 21/2/1 18/2/1 17/2/1
f 22/2/1 18/2/1 21/2/1
f 23/2/1 20/2/1 19/2/1
f 24/2/1 20/2/1 23/2/1
f 29/2/1 26/2/1 25/2/1
f 30/2/1 26/2/1 29/2/1
f 31/2/1 28/2/1 27/2/1
f 32/2/1 28/2/1 31/2/1
f 33/2/2 34/2/2 37/2/2
f 37/2/2 34/2/2 38/2/2
f 35/2/2 36/2/2 39/2/2
f 39/2/2 36/2/2 40/2/2
f 41/2/2 42/2/2 45/2/2
f 45/2/2 42/2/2 46/2/2
f 43/2/2 44/2/2 47/2/2
f 47/2/2 44/2/2 48/2/2
f 49/3/2 50/3/2 52/3/2
f 52/3/2 50/3/2 53/3/2
f 51/2/2 52/2/2 55/2/2
f 52/3/2 53/3/2 56/3/2
f 55/2/2 52/2/2 56/2/2
f 53/2/2 54/2/2 57/2/2
f 56/3/2 53/3/2 57/3/2
f 57/2/2 54/2/2 58/2/2
f 56/3/2 57/3/2 59/3/2
f 59/3/2 57/3/2 60/3/2
f 64/2/3 62/2/3 61/2/3
f 65/2/3 62/2/3 64/2/3
f 67/2/3 64/2/3 63/2/3
f 67/2/3 66/2/3 65/2/3
f 67/2/3 65/2/3 64/2/3
f 68/2/3 66/2/3 67/2/3
f 69/2/3 66/2/3 68/2/3
f 70/2/3 66/2/3 69/2/3
f 71/2/3 69/2/3 68/2/3
f 72/2/3 69/2/3 71/2/3
f 75/3/3 74/3/3 73/3/3
f 76/3/3 74/3/3 75/3/3
f 77/3/3 74/3/3 76/3/3
f 78/3/3 74/3/3 77/3/3
f 79/3/3 75/3/3 73/3/3
f 80/3/3 75/3/3 79/3/3
f 81/3/3 75/3/3 80/3/3
f 82/1/3 76/1/3 75/1/3
f 82/3/3 75/3/3 81/3/3
f 83/3/3 77/3/3 76/3/3
f 83/1/3 76/1/3 82/1/3
f 84/3/3 77/3/3 83/3/3
f 85/3/3 77/3/3 84/3/3
f 86/3/3 77/3/3 85/3/3
f 87/3/3 77/3/3 86/3/3
f 88/3/3 77/3/3 87/3/3
f 89/3/3 77/3/3 88/3/3
f 90/1/3 78/1/3 77/1/3
f 90/3/3 77/3/3 89/3/3
f 91/3/3 74/3/3 78/3/3
f 91/1/3 78/1/3 90/1/3
f 92/3/3 74/3/3 91/3/3
f 93/3/3 81/3/3 80/3/3
f 93/1/3 80/1/3 79/1/3
f 94/3/3 81/3/3 93/3/3
f 95/1/3 82/1/3 81/1/3
f 96/3/3 83/3/3 82/3/3
f 96/1/3 82/1/3 95/1/3
f 97/1/3 84/1/3 83/1/3
f 97/3/3 83/3/3 96/3/3
f 98/1/3 84/1/3 97/1/3
f 99/1/3 86/1/3 85/1/3
f 99/3/3 87/3/3 86/3/3
f 100/3/3 87/3/3 99/3/3
f 101/3/3 87/3/3 100/3/3
f 102/1/3 88/1/3 87/1/3
f 102/3/3 87/3/3 101/3/3
f 103/1/3 90/1/3 89/1/3
f 104/3/3 91/3/3 90/3/3
f 104/1/3 90/1/3 103/1/3
f 105/1/3 92/1/3 91/1/3
f 105/3/3 91/3/3 104/3/3
f 106/1/3 92/1/3 105/1/3
f 107/1/3 93/1/3 79/1/3
f 107/1/3 94/1/3 93/1/3
f 108/1/3 94/1/3 107/1/3
f 109/3/3 81/3/3 94/3/3
f 109/1/3 94/1/3 108/1/3
f 110/1/3 95/1/3 81/1/3
f 110/3/3 81/3/3 109/3/3
f 111/3/3 96/3/3 95/3/3
f 111/1/3 84/1/3 98/1/3
f 111/3/3 98/3/3 97/3/3
f 111/3/3 97/3/3 96/3/3
f 112/3/3 85/3/3 84/3/3
f 112/1/3 84/1/3 111/1/3
f 113/1/3 99/1/3 85/1/3
f 113/3/3 85/3/3 112/3/3
f 113/1/3 100/1/3 99/1/3
f 114/1/3 100/1/3 113/1/3
f 115/1/3 100/1/3 114/1/3
f 116/1/3 102/1/3 101/1/3
f 117/1/3 88/1/3 102/1/3
f 117/1/3 102/1/3 116/1/3
f 118/3/3 89/3/3 88/3/3
f 118/1/3 88/1/3 117/1/3
f 119/1/3 103/1/3 89/1/3
f 119/3/3 89/3/3 118/3/3
f 120/3/3 104/3/3 103/3/3
f 120/1/3 103/1/3 119/1/3
f 120/3/3 106/3/3 105/3/3
f 120/3/3 105/3/3 104/3/3
f 121/3/3 108/3/3 107/3/3
f 121/1/3 109/1/3 108/1/3
f 121/1/3 110/1/3 109/1/3
f 122/1/3 95/1/3 110/1/3
f 122/1/3 110/1/3 121/1/3
f 122/3/3 111/3/3 95/3/3
f 122/3/3 112/3/3 111/3/3
f 123/3/3 112/3/3 122/3/3
f 124/1/3 113/1/3 112/1/3
f 124/3/3 112/3/3 123/3/3
f 124/1/3 114/1/3 113/1/3
f 125/1/3 100/1/3 115/1/3
f 125/3/3 101/3/3 100/3/3
f 126/1/3 116/1/3 101/1/3
f 126/3/3 101/3/3 125/3/3
f 127/1/3 119/1/3 118/1/3
f 127/3/3 120/3/3 119/3/3
f 127/1/3 118/1/3 117/1/3
f 128/3/3 106/3/3 120/3/3
f 128/3/3 120/3/3 127/3/3
f 129/1/3 92/1/3 106/1/3
f 129/3/3 106/3/3 128/3/3
f 130/1/3 92/1/3 129/1/3
f 131/3/3 121/3/3 107/3/3
f 131/3/3 123/3/3 122/3/3
f 131/3/3 122/3/3 121/3/3
f 132/1/3 124/1/3 123/1/3
f 132/3/3 123/3/3 131/3/3
f 133/1/3 124/1/3 132/1/3
f 134/1/3 114/1/3 124/1/3
f 134/1/3 124/1/3 133/1/3
f 134/3/3 115/3/3 114/3/3
f 135/1/3 127/1/3 117/1/3
f 135/3/3 117/3/3 116/3/3
f 135/1/3 128/1/3 127/1/3
f 136/1/3 128/1/3 135/1/3
f 137/3/3 130/3/3 129/3/3
f 137/1/3 128/1/3 136/1/3
f 137/3/3 129/3/3 128/3/3
f 138/3/3 130/3/3 137/3/3
f 139/1/3 133/1/3 132/1/3
f 139/1/3 132/1/3 131/1/3
f 140/3/3 134/3/3 133/3/3
f 140/1/3 133/1/3 139/1/3
f 141/1/3 125/1/3 115/1/3
f 141/3/3 134/3/3 140/3/3
f 141/3/3 115/3/3 134/3/3
f 141/1/3 126/1/3 125/1/3
f 142/1/3 116/1/3 126/1/3
f 142/1/3 126/1/3 141/1/3
f 142/3/3 136/3/3 135/3/3
f 142/3/3 135/3/3 116/3/3
f 143/1/3 137/1/3 136/1/3
f 143/3/3 136/3/3 142/3/3
f 143/1/3 138/1/3 137/1/3
f 144/1/3 138/1/3 143/1/3
f 145/3/3 140/3/3 139/3/3
f 145/3/3 142/3/3 141/3/3
f 145/3/3 144/3/3 143/3/3
f 145/3/3 143/3/3 142/3/3
f 145/3/3 141/3/3 140/3/3
f 146/3/3 144/3/3 145/3/3
f 147/3/3 144/3/3 146/3/3
f 148/3/3 144/3/3 147/3/3
f 149/3/3 144/3/3 148/3/3
f 150/3/3 144/3/3 149/3/3
f 151/1/3 146/1/3 145/1/3
f 152/1/3 146/1/3 151/1/3
f 153/3/3 147/3/3 146/3/3
f 153/1/3 146/1/3 152/1/3
f 154/3/3 147/3/3 153/3/3
f 155/3/3 149/3/3 148/3/3
f 156/1/3 150/1/3 149/1/3
f 156/3/3 149/3/3 155/3/3
f 157/1/3 150/1/3 156/1/3
f 158/1/3 150/1/3 157/1/3
f 159/3/3 152/3/3 151/3/3
f 160/3/3 152/3/3 159/3/3
f 161/1/3 153/1/3 152/1/3
f 161/3/3 152/3/3 160/3/3
f 161/1/3 154/1/3 153/1/3
f 162/1/3 154/1/3 161/1/3
f 163/1/3 154/1/3 162/1/3
f 164/3/3 147/3/3 154/3/3
f 164/1/3 154/1/3 163/1/3
f 165/1/3 148/1/3 147/1/3
f 165/3/3 147/3/3 164/3/3
f 166/1/3 148/1/3 165/1/3
f 167/1/3 148/1/3 166/1/3
f 168/1/3 156/1/3 155/1/3
f 168/1/3 157/1/3 156/1/3
f 169/3/3 158/3/3 157/3/3
f 169/1/3 157/1/3 168/1/3
f 170/3/3 158/3/3 169/3/3
f 171/3/3 158/3/3 170/3/3
f 172/3/3 159/3/3 151/3/3
f 173/1/3 160/1/3 159/1/3
f 173/3/3 159/3/3 172/3/3
f 174/1/3 160/1/3 173/1/3
f 175/1/3 160/1/3 174/1/3
f 176/3/3 161/3/3 160/3/3
f 176/3/3 162/3/3 161/3/3
f 177/1/3 163/1/3 162/1/3
f 177/3/3 162/3/3 176/3/3
f 178/1/3 163/1/3 177/1/3
f 179/1/3 163/1/3 178/1/3
f 180/3/3 167/3/3 166/3/3
f 181/3/3 167/3/3 180/3/3
f 182/3/3 155/3/3 148/3/3
f 182/1/3 148/1/3 167/1/3
f 183/1/3 168/1/3 155/1/3
f 183/3/3 155/3/3 182/3/3
f 184/1/3 168/1/3 183/1/3
f 185/3/3 170/3/3 169/3/3
f 185/1/3 168/1/3 184/1/3
f 185/3/3 169/3/3 168/3/3
f 186/3/3 170/3/3 185/3/3
f 187/1/3 173/1/3 172/1/3
f 187/1/3 174/1/3 173/1/3
f 188/3/3 175/3/3 174/3/3
f 188/1/3 174/1/3 187/1/3
f 189/3/3 176/3/3 160/3/3
f 189/1/3 160/1/3 175/1/3
f 190/3/3 176/3/3 189/3/3
f 191/3/3 176/3/3 190/3/3
f 192/1/3 177/1/3 176/1/3
f 192/3/3 176/3/3 191/3/3
f 193/3/3 167/3/3 181/3/3
f 193/1/3 182/1/3 167/1/3
f 193/1/3 184/1/3 183/1/3
f 193/1/3 183/1/3 182/1/3
f 194/1/3 184/1/3 193/1/3
f 195/3/3 170/3/3 186/3/3
f 195/1/3 186/1/3 185/1/3
f 196/3/3 170/3/3 195/3/3
f 197/3/3 170/3/3 196/3/3
f 198/1/3 171/1/3 170/1/3
f 198/3/3 170/3/3 197/3/3
f 199/1/3 187/1/3 172/1/3
f 200/3/3 188/3/3 187/3/3
f 200/1/3 187/1/3 199/1/3
f 201/3/3 175/3/3 188/3/3
f 201/3/3 188/3/3 200/3/3
f 201/1/3 190/1/3 189/1/3
f 201/1/3 189/1/3 175/1/3
f 202/3/3 191/3/3 190/3/3
f 202/1/3 190/1/3 201/1/3
f 203/1/3 192/1/3 191/1/3
f 203/3/3 191/3/3 202/3/3
f 204/1/3 177/1/3 192/1/3
f 204/1/3 192/1/3 203/1/3
f 204/3/3 178/3/3 177/3/3
f 205/1/3 184/1/3 194/1/3
f 205/3/3 194/3/3 193/3/3
f 206/3/3 185/3/3 184/3/3
f 206/1/3 184/1/3 205/1/3
f 207/1/3 196/1/3 195/1/3
f 207/3/3 185/3/3 206/3/3
f 207/1/3 195/1/3 185/1/3
f 208/3/3 197/3/3 196/3/3
f 208/1/3 196/1/3 207/1/3
f 209/1/3 198/1/3 197/1/3
f 209/3/3 197/3/3 208/3/3
f 210/1/3 171/1/3 198/1/3
f 210/1/3 198/1/3 209/1/3
f 211/3/3 200/3/3 199/3/3
f 211/1/3 203/1/3 202/1/3
f 211/3/3 202/3/3 201/3/3
f 211/3/3 201/3/3 200/3/3
f 212/3/3 204/3/3 203/3/3
f 212/1/3 203/1/3 211/1/3
f 213/3/3 178/3/3 204/3/3
f 213/3/3 204/3/3 212/3/3
f 216/3/3 207/3/3 206/3/3
f 216/3/3 193/3/3 181/3/3
f 216/3/3 208/3/3 207/3/3
f 216/3/3 206/3/3 205/3/3
f 216/3/3 205/3/3 193/3/3
f 217/1/3 209/1/3 208/1/3
f 217/3/3 208/3/3 216/3/3
f 218/3/3 210/3/3 209/3/3
f 218/1/3 209/1/3 217/1/3
f 219/3/3 214/3/3 213/3/3
f 219/3/3 212/3/3 211/3/3
f 219/3/3 211/3/3 199/3/3
f 219/3/3 213/3/3 212/3/3
f 220/3/3 214/3/3 219/3/3
f 221/3/3 217/3/3 216/3/3
f 221/3/3 218/3/3 217/3/3
f 221/3/3 216/3/3 215/3/3
f 222/3/3 210/3/3 218/3/3
f 222/3/3 218/3/3 221/3/3
f 223/3/4 224/3/4 225/3/4
f 225/3/4 224/3/4 226/3/4
f 226/3/4 224/3/4 227/3/4
f 227/3/4 224/3/4 228/3/4
f 223/3/4 225/3/4 229/3/4
f 229/3/4 225/3/4 230/3/4
f 230/3/4 225/3/4 231/3/4
f 225/1/4 226/1/4 232/1/4
f 231/3/4 225/3/4 232/3/4
f 226/3/4 227/3/4 233/3/4
f 232/1/4 226/1/4 233/1/4
f 233/3/4 227/3/4 234/3/4
f 234/3/4 227/3/4 235/3/4
f 235/3/4 227/3/4 236/3/4
f 236/3/4 227/3/4 237/3/4
f 237/3/4 227/3/4 238/3/4
f 238/3/4 227/3/4 239/3/4
f 227/1/4 228/1/4 240/1/4
f 239/3/4 227/3/4 240/3/4
f 228/3/4 224/3/4 241/3/4
f 240/1/4 228/1/4 241/1/4
f 241/3/4 224/3/4 242/3/4
f 230/3/4 231/3/4 243/3/4
f 229/1/4 230/1/4 243/1/4
f 243/3/4 231/3/4 244/3/4
f 231/1/4 232/1/4 245/1/4
f 232/3/4 233/3/4 246/3/4
f 245/1/4 232/1/4 246/1/4
f 233/1/4 234/1/4 247/1/4
f 246/3/4 233/3/4 247/3/4
f 247/1/4 234/1/4 248/1/4
f 235/1/4 236/1/4 249/1/4
f 236/3/4 237/3/4 249/3/4
f 249/3/4 237/3/4 250/3/4
f 250/3/4 237/3/4 251/3/4
f 237/1/4 238/1/4 252/1/4
f 251/3/4 237/3/4 252/3/4
f 239/1/4 240/1/4 253/1/4
f 240/3/4 241/3/4 254/3/4
f 253/1/4 240/1/4 254/1/4
f 241/1/4 242/1/4 255/1/4
f 254/3/4 241/3/4 255/3/4
f 255/1/4 242/1/4 256/1/4
f 229/1/4 243/1/4 257/1/4
f 243/1/4 244/1/4 257/1/4
f 257/1/4 244/1/4 258/1/4
f 244/3/4 231/3/4 259/3/4
f 258/1/4 244/1/4 259/1/4
f 231/1/4 245/1/4 260/1/4
f 259/3/4 231/3/4 260/3/4
f 245/3/4 246/3/4 261/3/4
f 248/1/4 234/1/4 261/1/4
f 247/3/4 248/3/4 261/3/4
f 246/3/4 247/3/4 261/3/4
f 234/3/4 235/3/4 262/3/4
f 261/1/4 234/1/4 262/1/4
f 235/1/4 249/1/4 263/1/4
f 262/3/4 235/3/4 263/3/4
f 249/1/4 250/1/4 263/1/4
f 263/1/4 250/1/4 264/1/4
f 264/1/4 250/1/4 265/1/4
f 251/1/4 252/1/4 266/1/4
f 252/1/4 238/1/4 267/1/4
f 266/1/4 252/1/4 267/1/4
f 238/3/4 239/3/4 268/3/4
f 267/1/4 238/1/4 268/1/4
f 239/1/4 253/1/4 269/1/4
f 268/3/4 239/3/4 269/3/4
f 253/3/4 254/3/4 270/3/4
f 269/1/4 253/1/4 270/1/4
f 255/3/4 256/3/4 270/3/4
f 254/3/4 255/3/4 270/3/4
f 257/3/4 258/3/4 271/3/4
f 258/1/4 259/1/4 271/1/4
f 259/1/4 260/1/4 271/1/4
f 260/1/4 245/1/4 272/1/4
f 271/1/4 260/1/4 272/1/4
f 245/3/4 261/3/4 272/3/4
f 261/3/4 262/3/4 272/3/4
f 272/3/4 262/3/4 273/3/4
f 262/1/4 263/1/4 274/1/4
f 273/3/4 262/3/4 274/3/4
f 263/1/4 264/1/4 274/1/4
f 265/1/4 250/1/4 275/1/4
f 250/3/4 251/3/4 275/3/4
f 251/1/4 266/1/4 276/1/4
f 275/3/4 251/3/4 276/3/4
f 268/1/4 269/1/4 277/1/4
f 269/3/4 270/3/4 277/3/4
f 267/1/4 268/1/4 277/1/4
f 270/3/4 256/3/4 278/3/4
f 277/3/4 270/3/4 278/3/4
f 256/1/4 242/1/4 279/1/4
f 278/3/4 256/3/4 279/3/4
f 279/1/4 242/1/4 280/1/4
f 257/3/4 271/3/4 281/3/4
f 272/3/4 273/3/4 281/3/4
f 271/3/4 272/3/4 281/3/4
f 273/1/4 274/1/4 282/1/4
f 281/3/4 273/3/4 282/3/4
f 282/1/4 274/1/4 283/1/4
f 274/1/4 264/1/4 284/1/4
f 283/1/4 274/1/4 284/1/4
f 264/3/4 265/3/4 284/3/4
f 267/1/4 277/1/4 285/1/4
f 266/3/4 267/3/4 285/3/4
f 277/1/4 278/1/4 285/1/4
f 285/1/4 278/1/4 286/1/4
f 279/3/4 280/3/4 287/3/4
f 286/1/4 278/1/4 287/1/4
f 278/3/4 279/3/4 287/3/4
f 287/3/4 280/3/4 288/3/4
f 282/1/4 283/1/4 289/1/4
f 281/1/4 282/1/4 289/1/4
f 283/3/4 284/3/4 290/3/4
f 289/1/4 283/1/4 290/1/4
f 265/1/4 275/1/4 291/1/4
f 290/3/4 284/3/4 291/3/4
f 284/3/4 265/3/4 291/3/4
f 275/1/4 276/1/4 291/1/4
f 276/1/4 266/1/4 292/1/4
f 291/1/4 276/1/4 292/1/4
f 285/3/4 286/3/4 292/3/4
f 266/3/4 285/3/4 292/3/4
f 286/1/4 287/1/4 293/1/4
f 292/3/4 286/3/4 293/3/4
f 287/1/4 288/1/4 293/1/4
f 293/1/4 288/1/4 294/1/4
f 289/3/4 290/3/4 295/3/4
f 291/3/4 292/3/4 295/3/4
f 293/3/4 294/3/4 295/3/4
f 292/3/4 293/3/4 295/3/4
f 290/3/4 291/3/4 295/3/4
f 295/3/4 294/3/4 296/3/4
f 296/3/4 294/3/4 297/3/4
f 297/3/4 294/3/4 298/3/4
f 298/3/4 294/3/4 299/3/4
f 299/3/4 294/3/4 300/3/4
f 295/1/4 296/1/4 301/1/4
f 301/1/4 296/1/4 302/1/4
f 296/3/4 297/3/4 303/3/4
f 302/1/4 296/1/4 303/1/4
f 303/3/4 297/3/4 304/3/4
f 298/3/4 299/3/4 305/3/4
f 299/1/4 300/1/4 306/1/4
f 305/3/4 299/3/4 306/3/4
f 306/1/4 300/1/4 307/1/4
f 307/1/4 300/1/4 308/1/4
f 301/3/4 302/3/4 309/3/4
f 309/3/4 302/3/4 310/3/4
f 302/1/4 303/1/4 311/1/4
f 310/3/4 302/3/4 311/3/4
f 303/1/4 304/1/4 311/1/4
f 311/1/4 304/1/4 312/1/4
f 312/1/4 304/1/4 313/1/4
f 304/3/4 297/3/4 314/3/4
f 313/1/4 304/1/4 314/1/4
f 297/1/4 298/1/4 315/1/4
f 314/3/4 297/3/4 315/3/4
f 315/1/4 298/1/4 316/1/4
f 316/1/4 298/1/4 317/1/4
f 305/1/4 306/1/4 318/1/4
f 306/1/4 307/1/4 318/1/4
f 307/3/4 308/3/4 319/3/4
f 318/1/4 307/1/4 319/1/4
f 319/3/4 308/3/4 320/3/4
f 320/3/4 308/3/4 321/3/4
f 301/3/4 309/3/4 322/3/4
f 309/1/4 310/1/4 323/1/4
f 322/3/4 309/3/4 323/3/4
f 323/1/4 310/1/4 324/1/4
f 324/1/4 310/1/4 325/1/4
f 310/3/4 311/3/4 326/3/4
f 311/3/4 312/3/4 326/3/4
f 312/1/4 313/1/4 327/1/4
f 326/3/4 312/3/4 327/3/4
f 327/1/4 313/1/4 328/1/4
f 328/1/4 313/1/4 329/1/4
f 316/3/4 317/3/4 330/3/4
f 330/3/4 317/3/4 331/3/4
f 298/3/4 305/3/4 332/3/4
f 317/1/4 298/1/4 332/1/4
f 305/1/4 318/1/4 333/1/4
f 332/3/4 305/3/4 333/3/4
f 333/1/4 318/1/4 334/1/4
f 319/3/4 320/3/4 335/3/4
f 334/1/4 318/1/4 335/1/4
f 318/3/4 319/3/4 335/3/4
f 335/3/4 320/3/4 336/3/4
f 322/1/4 323/1/4 337/1/4
f 323/1/4 324/1/4 337/1/4
f 324/3/4 325/3/4 338/3/4
f 337/1/4 324/1/4 338/1/4
f 310/3/4 326/3/4 339/3/4
f 325/1/4 310/1/4 339/1/4
f 339/3/4 326/3/4 340/3/4
f 340/3/4 326/3/4 341/3/4
f 326/1/4 327/1/4 342/1/4
f 341/3/4 326/3/4 342/3/4
f 331/3/4 317/3/4 343/3/4
f 317/1/4 332/1/4 343/1/4
f 333/1/4 334/1/4 343/1/4
f 332/1/4 333/1/4 343/1/4
f 343/1/4 334/1/4 344/1/4
f 336/3/4 320/3/4 345/3/4
f 335/1/4 336/1/4 345/1/4
f 345/3/4 320/3/4 346/3/4
f 346/3/4 320/3/4 347/3/4
f 320/1/4 321/1/4 348/1/4
f 347/3/4 320/3/4 348/3/4
f 322/1/4 337/1/4 349/1/4
f 337/3/4 338/3/4 350/3/4
f 349/1/4 337/1/4 350/1/4
f 338/3/4 325/3/4 351/3/4
f 350/3/4 338/3/4 351/3/4
f 339/1/4 340/1/4 351/1/4
f 325/1/4 339/1/4 351/1/4
f 340/3/4 341/3/4 352/3/4
f 351/1/4 340/1/4 352/1/4
f 341/1/4 342/1/4 353/1/4
f 352/3/4 341/3/4 353/3/4
f 342/1/4 327/1/4 354/1/4
f 353/1/4 342/1/4 354/1/4
f 327/3/4 328/3/4 354/3/4
f 344/1/4 334/1/4 355/1/4
f 343/3/4 344/3/4 355/3/4
f 334/3/4 335/3/4 356/3/4
f 355/1/4 334/1/4 356/1/4
f 345/1/4 346/1/4 357/1/4
f 356/3/4 335/3/4 357/3/4
f 335/1/4 345/1/4 357/1/4
f 346/3/4 347/3/4 358/3/4
f 357/1/4 346/1/4 358/1/4
f 347/1/4 348/1/4 359/1/4
f 358/3/4 347/3/4 359/3/4
f 348/1/4 321/1/4 360/1/4
f 359/1/4 348/1/4 360/1/4
f 349/3/4 350/3/4 361/3/4
f 352/1/4 353/1/4 361/1/4
f 351/3/4 352/3/4 361/3/4
f 350/3/4 351/3/4 361/3/4
f 353/3/4 354/3/4 362/3/4
f 361/1/4 353/1/4 362/1/4
f 354/3/4 328/3/4 363/3/4
f 362/3/4 354/3/4 363/3/4
f 356/3/4 357/3/4 366/3/4
f 331/3/4 343/3/4 366/3/4
f 357/3/4 358/3/4 366/3/4
f 355/3/4 356/3/4 366/3/4
f 343/3/4 355/3/4 366/3/4
f 358/1/4 359/1/4 367/1/4
f 366/3/4 358/3/4 367/3/4
f 359/3/4 360/3/4 368/3/4
f 367/1/4 359/1/4 368/1/4
f 363/3/4 364/3/4 369/3/4
f 361/3/4 362/3/4 369/3/4
f 349/3/4 361/3/4 369/3/4
f 362/3/4 363/3/4 369/3/4
f 369/3/4 364/3/4 370/3/4
f 366/3/4 367/3/4 371/3/4
f 367/3/4 368/3/4 371/3/4
f 365/3/4 366/3/4 371/3/4
f 368/3/4 360/3/4 372/3/4
f 371/3/4 368/3/4 372/3/4
f 373/2/4 374/2/4 376/2/4
f 376/2/4 374/2/4 377/2/4
f 375/2/4 376/2/4 379/2/4
f 377/2/4 378/2/4 379/2/4
f 376/2/4 377/2/4 379/2/4
f 379/2/4 378/2/4 380/2/4
f 380/2/4 378/2/4 381/2/4
f 381/2/4 378/2/4 382/2/4
f 380/2/4 381/2/4 383/2/4
f 383/2/4 381/2/4 384/2/4
f 395/3/5 386/3/5 385/3/5
f 395/1/5 387/1/5 386/1/5
f 396/3/5 388/3/5 387/3/5
f 396/1/5 387/1/5 395/1/5
f 397/1/5 389/1/5 388/1/5
f 397/3/5 388/3/5 396/3/5
f 398/3/5 390/3/5 389/3/5
f 398/1/5 389/1/5 397/1/5
f 399/1/5 391/1/5 390/1/5
f 399/3/5 390/3/5 398/3/5
f 400/3/5 392/3/5 391/3/5
f 400/1/5 391/1/5 399/1/5
f 401/1/5 393/1/5 392/1/5
f 401/3/5 392/3/5 400/3/5
f 402/3/5 394/3/5 393/3/5
f 402/1/5 393/1/5 401/1/5
f 403/3/5 401/3/5 400/3/5
f 403/3/5 400/3/5 399/3/5
f 403/3/5 402/3/5 401/3/5
f 403/3/5 399/3/5 398/3/5
f 403/3/5 398/3/5 397/3/5
f 403/3/5 397/3/5 396/3/5
f 403/3/5 396/3/5 395/3/5
f 403/3/5 395/3/5 385/3/5
f 404/3/5 402/3/5 403/3/5
f 405/3/5 402/3/5 404/3/5
f 406/3/5 402/3/5 405/3/5
f 407/3/5 402/3/5 406/3/5
f 408/3/5 402/3/5 407/3/5
f 409/3/5 402/3/5 408/3/5
f 410/3/5 394/3/5 402/3/5
f 410/3/5 402/3/5 409/3/5
f 411/3/5 403/3/5 385/3/5
f 412/1/5 404/1/5 403/1/5
f 412/3/5 403/3/5 411/3/5
f 413/3/5 405/3/5 404/3/5
f 413/1/5 404/1/5 412/1/5
f 414/1/5 406/1/5 405/1/5
f 414/3/5 405/3/5 413/3/5
f 415/3/5 407/3/5 406/3/5
f 415/1/5 406/1/5 414/1/5
f 416/1/5 408/1/5 407/1/5
f 416/3/5 407/3/5 415/3/5
f 417/3/5 409/3/5 408/3/5
f 417/1/5 408/1/5 416/1/5
f 418/1/5 410/1/5 409/1/5
f 418/3/5 409/3/5 417/3/5
f 419/3/5 394/3/5 410/3/5
f 419/1/5 410/1/5 418/1/5
f 420/3/5 394/3/5 419/3/5
f 423/2/5 422/2/5 421/2/5
f 424/2/5 422/2/5 423/2/5
f 427/2/5 426/2/5 425/2/5
f 428/2/5 426/2/5 427/2/5
f 433/2/5 430/2/5 429/2/5
f 434/2/5 430/2/5 433/2/5
f 435/2/5 432/2/5 431/2/5
f 436/2/5 432/2/5 435/2/5
f 441/2/5 438/2/5 437/2/5
f 442/2/5 438/2/5 441/2/5
f 443/2/5 440/2/5 439/2/5
f 444/2/5 440/2/5 443/2/5
f 445/2/6 446/2/6 449/2/6
f 449/2/6 446/2/6 450/2/6
f 447/2/6 448/2/6 451/2/6
f 451/2/6 448/2/6 452/2/6
f 453/2/6 454/2/6 457/2/6
f 457/2/6 454/2/6 458/2/6
f 455/2/6 456/2/6 459/2/6
f 459/2/6 456/2/6 460/2/6
f 461/2/6 462/2/6 463/2/6
f 463/2/6 462/2/6 464/2/6
f 465/2/6 466/2/6 467/2/6
f 467/2/6 466/2/6 468/2/6
f 469/3/6 470/3/6 479/3/6
f 470/1/6 471/1/6 479/1/6
f 471/3/6 472/3/6 480/3/6
f 479/1/6 471/1/6 480/1/6
f 472/1/6 473/1/6 481/1/6
f 480/3/6 472/3/6 481/3/6
f 473/3/6 474/3/6 482/3/6
f 481/1/6 473/1/6 482/1/6
f 474/1/6 475/1/6 483/1/6
f 482/3/6 474/3/6 483/3/6
f 475/3/6 476/3/6 484/3/6
f 483/1/6 475/1/6 484/1/6
f 476/1/6 477/1/6 485/1/6
f 484/3/6 476/3/6 485/3/6
f 477/3/6 478/3/6 486/3/6
f 485/1/6 477/1/6 486/1/6
f 484/3/6 485/3/6 487/3/6
f 483/3/6 484/3/6 487/3/6
f 485/3/6 486/3/6 487/3/6
f 482/3/6 483/3/6 487/3/6
f 481/3/6 482/3/6 487/3/6
f 480/3/6 481/3/6 487/3/6
f 479/3/6 480/3/6 487/3/6
f 469/3/6 479/3/6 487/3/6
f 487/3/6 486/3/6 488/3/6
f 488/3/6 486/3/6 489/3/6
f 489/3/6 486/3/6 490/3/6
f 490/3/6 486/3/6 491/3/6
f 491/3/6 486/3/6 492/3/6
f 492/3/6 486/3/6 493/3/6
f 486/3/6 478/3/6 494/3/6
f 493/3/6 486/3/6 494/3/6
f 469/3/6 487/3/6 495/3/6
f 487/1/6 488/1/6 496/1/6
f 495/3/6 487/3/6 496/3/6
f 488/3/6 489/3/6 497/3/6
f 496/1/6 488/1/6 497/1/6
f 489/1/6 490/1/6 498/1/6
f 497/3/6 489/3/6 498/3/6
f 490/3/6 491/3/6 499/3/6
f 498/1/6 490/1/6 499/1/6
f 491/1/6 492/1/6 500/1/6
f 499/3/6 491/3/6 500/3/6
f 492/3/6 493/3/6 501/3/6
f 500/1/6 492/1/6 501/1/6
f 493/1/6 494/1/6 502/1/6
f 501/3/6 493/3/6 502/3/6
f 494/3/6 478/3/6 503/3/6
f 502/1/6 494/1/6 503/1/6
f 503/3/6 478/3/6 504/3/6
