# MagicaVoxel @ Ephtracy

# material
mtllib H.mtl
usemtl palette

# normals
vn -1 0 0
vn 1 0 0
vn 0 0 1
vn 0 0 -1
vn 0 -1 0
vn 0 1 0

# texcoords
vt 0.275391 0.5
vt 0.283203 0.5

# verts
v -1.5 0 12.5
v -1.5 0 -12.5
v -1.5 1 11.5
v -1.5 1 10.5
v -1.5 1 6.5
v -1.5 1 5.5
v -1.5 1 -10.5
v -1.5 1 -11.5
v -1.5 2 6.5
v -1.5 2 5.5
v -1.5 2 -2.5
v -1.5 2 -3.5
v -1.5 2 -5.5
v -1.5 2 -6.5
v -1.5 4 6.5
v -1.5 4 5.5
v -1.5 5 -3.5
v -1.5 5 -5.5
v -1.5 6 8.5
v -1.5 6 6.5
v -1.5 6 5.5
v -1.5 6 -3.5
v -1.5 6 -5.5
v -1.5 7 7.5
v -1.5 7 6.5
v -1.5 7 4.5
v -1.5 7 3.5
v -1.5 8 7.5
v -1.5 8 6.5
v -1.5 8 5.5
v -1.5 8 4.5
v -1.5 8 3.5
v -1.5 9 8.5
v -1.5 9 7.5
v -1.5 9 6.5
v -1.5 9 5.5
v -1.5 9 4.5
v -1.5 9 -2.5
v -1.5 9 -3.5
v -1.5 9 -5.5
v -1.5 9 -6.5
v -1.5 10 7.5
v -1.5 10 5.5
v -1.5 11 11.5
v -1.5 11 10.5
v -1.5 11 -10.5
v -1.5 11 -11.5
v -1.5 12 12.5
v -1.5 12 -12.5
v 1.5 0 12.5
v 1.5 0 -12.5
v 1.5 12 12.5
v 1.5 12 -12.5
v -1.5 0 12.5
v -1.5 12 12.5
v 1.5 0 12.5
v 1.5 12 12.5
v -1.5 0 -12.5
v -1.5 12 -12.5
v 1.5 0 -12.5
v 1.5 12 -12.5
v -1.5 0 12.5
v 1.5 0 12.5
v -1.5 0 -12.5
v 1.5 0 -12.5
v -1.5 12 12.5
v 1.5 12 12.5
v -1.5 12 -12.5
v 1.5 12 -12.5

# faces
f 3/1/1 2/1/1 1/1/1
f 4/1/1 2/1/1 3/1/1
f 5/1/1 2/1/1 4/1/1
f 6/1/1 2/1/1 5/1/1
f 7/1/1 2/1/1 6/1/1
f 8/1/1 2/1/1 7/1/1
f 9/1/1 5/1/1 4/1/1
f 9/2/1 6/2/1 5/2/1
f 10/1/1 7/1/1 6/1/1
f 10/2/1 6/2/1 9/2/1
f 11/1/1 7/1/1 10/1/1
f 12/1/1 7/1/1 11/1/1
f 13/1/1 7/1/1 12/1/1
f 14/1/1 7/1/1 13/1/1
f 15/1/1 9/1/1 4/1/1
f 15/1/1 10/1/1 9/1/1
f 15/1/1 11/1/1 10/1/1
f 16/1/1 11/1/1 15/1/1
f 17/1/1 13/1/1 12/1/1
f 17/2/1 12/2/1 11/2/1
f 18/2/1 14/2/1 13/2/1
f 18/1/1 13/1/1 17/1/1
f 19/1/1 15/1/1 4/1/1
f 20/2/1 16/2/1 15/2/1
f 20/1/1 15/1/1 19/1/1
f 21/1/1 11/1/1 16/1/1
f 21/2/1 16/2/1 20/2/1
f 22/2/1 17/2/1 11/2/1
f 22/2/1 18/2/1 17/2/1
f 23/2/1 14/2/1 18/2/1
f 23/2/1 18/2/1 22/2/1
f 24/2/1 20/2/1 19/2/1
f 25/1/1 21/1/1 20/1/1
f 25/2/1 20/2/1 24/2/1
f 26/1/1 11/1/1 21/1/1
f 26/1/1 21/1/1 25/1/1
f 27/1/1 11/1/1 26/1/1
f 28/1/1 25/1/1 24/1/1
f 28/2/1 24/2/1 19/2/1
f 28/1/1 26/1/1 25/1/1
f 29/1/1 26/1/1 28/1/1
f 30/1/1 26/1/1 29/1/1
f 31/2/1 27/2/1 26/2/1
f 31/1/1 26/1/1 30/1/1
f 32/1/1 11/1/1 27/1/1
f 32/2/1 27/2/1 31/2/1
f 33/1/1 19/1/1 4/1/1
f 33/2/1 28/2/1 19/2/1
f 33/2/1 29/2/1 28/2/1
f 34/2/1 29/2/1 33/2/1
f 35/1/1 30/1/1 29/1/1
f 35/2/1 29/2/1 34/2/1
f 36/2/1 31/2/1 30/2/1
f 36/1/1 30/1/1 35/1/1
f 37/1/1 32/1/1 31/1/1
f 37/2/1 31/2/1 36/2/1
f 38/1/1 11/1/1 32/1/1
f 38/1/1 32/1/1 37/1/1
f 38/2/1 22/2/1 11/2/1
f 39/1/1 23/1/1 22/1/1
f 39/2/1 22/2/1 38/2/1
f 40/2/1 14/2/1 23/2/1
f 40/1/1 23/1/1 39/1/1
f 41/1/1 7/1/1 14/1/1
f 41/2/1 14/2/1 40/2/1
f 42/2/1 35/2/1 34/2/1
f 42/1/1 34/1/1 33/1/1
f 42/2/1 36/2/1 35/2/1
f 43/1/1 40/1/1 39/1/1
f 43/2/1 36/2/1 42/2/1
f 43/1/1 39/1/1 38/1/1
f 43/1/1 38/1/1 37/1/1
f 43/1/1 41/1/1 40/1/1
f 43/1/1 37/1/1 36/1/1
f 44/1/1 3/1/1 1/1/1
f 44/2/1 4/2/1 3/2/1
f 45/1/1 43/1/1 42/1/1
f 45/2/1 4/2/1 44/2/1
f 45/1/1 42/1/1 33/1/1
f 45/1/1 33/1/1 4/1/1
f 46/1/1 41/1/1 43/1/1
f 46/1/1 43/1/1 45/1/1
f 46/2/1 8/2/1 7/2/1
f 46/1/1 7/1/1 41/1/1
f 47/1/1 2/1/1 8/1/1
f 47/2/1 8/2/1 46/2/1
f 48/1/1 45/1/1 44/1/1
f 48/1/1 44/1/1 1/1/1
f 48/1/1 47/1/1 46/1/1
f 48/1/1 46/1/1 45/1/1
f 49/1/1 2/1/1 47/1/1
f 49/1/1 47/1/1 48/1/1
f 50/1/2 51/1/2 52/1/2
f 52/1/2 51/1/2 53/1/2
f 56/1/3 55/1/3 54/1/3
f 57/1/3 55/1/3 56/1/3
f 58/1/4 59/1/4 60/1/4
f 60/1/4 59/1/4 61/1/4
f 64/1/5 63/1/5 62/1/5
f 65/1/5 63/1/5 64/1/5
f 66/1/6 67/1/6 68/1/6
f 68/1/6 67/1/6 69/1/6
