# MagicaVoxel @ Ephtracy

# material
mtllib WASD.mtl
usemtl palette

# normals
vn -1 0 0
vn 1 0 0
vn 0 0 1
vn 0 0 -1
vn 0 -1 0
vn 0 1 0

# texcoords
vt 0.275391 0.5
vt 0.283203 0.5

# verts
v -1.5 0 12.5
v -1.5 0 -12.5
v -1.5 1 11.5
v -1.5 1 10.5
v -1.5 1 -2.5
v -1.5 1 -4.5
v -1.5 1 -10.5
v -1.5 1 -11.5
v -1.5 2 6.5
v -1.5 2 5.5
v -1.5 2 -1.5
v -1.5 2 -2.5
v -1.5 2 -4.5
v -1.5 3 6.5
v -1.5 3 5.5
v -1.5 3 1.5
v -1.5 3 -0.5
v -1.5 3 -1.5
v -1.5 3 -2.5
v -1.5 3 -4.5
v -1.5 3 -6.5
v -1.5 3 -7.5
v -1.5 3 -8.5
v -1.5 3 -9.5
v -1.5 4 6.5
v -1.5 4 5.5
v -1.5 4 2.5
v -1.5 4 1.5
v -1.5 4 0.5
v -1.5 4 -2.5
v -1.5 4 -4.5
v -1.5 4 -5.5
v -1.5 4 -7.5
v -1.5 4 -8.5
v -1.5 5 -2.5
v -1.5 5 -4.5
v -1.5 5 -5.5
v -1.5 5 -7.5
v -1.5 5 -8.5
v -1.5 6 8.5
v -1.5 6 6.5
v -1.5 6 2.5
v -1.5 6 1.5
v -1.5 6 0.5
v -1.5 6 -2.5
v -1.5 6 -4.5
v -1.5 6 -6.5
v -1.5 6 -7.5
v -1.5 6 -8.5
v -1.5 6 -9.5
v -1.5 7 7.5
v -1.5 7 5.5
v -1.5 7 1.5
v -1.5 7 -0.5
v -1.5 7 -2.5
v -1.5 7 -3.5
v -1.5 7 -4.5
v -1.5 7 -5.5
v -1.5 7 -7.5
v -1.5 7 -8.5
v -1.5 8 5.5
v -1.5 8 4.5
v -1.5 8 -1.5
v -1.5 8 -2.5
v -1.5 8 -3.5
v -1.5 8 -4.5
v -1.5 8 -5.5
v -1.5 8 -6.5
v -1.5 9 8.5
v -1.5 9 7.5
v -1.5 9 5.5
v -1.5 9 4.5
v -1.5 10 7.5
v -1.5 10 5.5
v -1.5 10 -1.5
v -1.5 10 -2.5
v -1.5 10 -3.5
v -1.5 10 -4.5
v -1.5 10 -5.5
v -1.5 10 -6.5
v -1.5 11 11.5
v -1.5 11 10.5
v -1.5 11 -10.5
v -1.5 11 -11.5
v -1.5 12 12.5
v -1.5 12 -12.5
v 1.5 0 12.5
v 1.5 0 -12.5
v 1.5 12 12.5
v 1.5 12 -12.5
v -1.5 0 12.5
v -1.5 12 12.5
v 1.5 0 12.5
v 1.5 12 12.5
v -1.5 0 -12.5
v -1.5 12 -12.5
v 1.5 0 -12.5
v 1.5 12 -12.5
v -1.5 0 12.5
v 1.5 0 12.5
v -1.5 0 -12.5
v 1.5 0 -12.5
v -1.5 12 12.5
v 1.5 12 12.5
v -1.5 12 -12.5
v 1.5 12 -12.5

# faces
f 3/1/1 2/1/1 1/1/1
f 4/1/1 2/1/1 3/1/1
f 5/1/1 2/1/1 4/1/1
f 6/1/1 2/1/1 5/1/1
f 7/1/1 2/1/1 6/1/1
f 8/1/1 2/1/1 7/1/1
f 9/1/1 5/1/1 4/1/1
f 10/1/1 5/1/1 9/1/1
f 11/1/1 5/1/1 10/1/1
f 12/2/1 6/2/1 5/2/1
f 12/1/1 5/1/1 11/1/1
f 13/1/1 7/1/1 6/1/1
f 13/2/1 6/2/1 12/2/1
f 14/1/1 9/1/1 4/1/1
f 14/2/1 10/2/1 9/2/1
f 15/1/1 11/1/1 10/1/1
f 15/2/1 10/2/1 14/2/1
f 16/1/1 11/1/1 15/1/1
f 17/1/1 11/1/1 16/1/1
f 18/2/1 12/2/1 11/2/1
f 18/1/1 11/1/1 17/1/1
f 19/1/1 13/1/1 12/1/1
f 19/2/1 12/2/1 18/2/1
f 20/1/1 7/1/1 13/1/1
f 20/1/1 13/1/1 19/1/1
f 21/1/1 7/1/1 20/1/1
f 22/1/1 7/1/1 21/1/1
f 23/1/1 7/1/1 22/1/1
f 24/1/1 7/1/1 23/1/1
f 25/1/1 14/1/1 4/1/1
f 25/1/1 15/1/1 14/1/1
f 25/1/1 16/1/1 15/1/1
f 26/1/1 16/1/1 25/1/1
f 27/1/1 16/1/1 26/1/1
f 28/2/1 17/2/1 16/2/1
f 28/1/1 16/1/1 27/1/1
f 29/2/1 17/2/1 28/2/1
f 30/1/1 19/1/1 18/1/1
f 30/1/1 18/1/1 17/1/1
f 30/2/1 20/2/1 19/2/1
f 31/1/1 21/1/1 20/1/1
f 31/2/1 20/2/1 30/2/1
f 32/1/1 21/1/1 31/1/1
f 33/1/1 23/1/1 22/1/1
f 33/2/1 22/2/1 21/2/1
f 34/2/1 24/2/1 23/2/1
f 34/1/1 23/1/1 33/1/1
f 35/1/1 30/1/1 17/1/1
f 35/1/1 31/1/1 30/1/1
f 36/2/1 32/2/1 31/2/1
f 36/1/1 31/1/1 35/1/1
f 37/1/1 21/1/1 32/1/1
f 37/2/1 32/2/1 36/2/1
f 38/2/1 33/2/1 21/2/1
f 38/2/1 34/2/1 33/2/1
f 39/2/1 24/2/1 34/2/1
f 39/2/1 34/2/1 38/2/1
f 40/1/1 25/1/1 4/1/1
f 41/2/1 26/2/1 25/2/1
f 41/1/1 25/1/1 40/1/1
f 42/1/1 27/1/1 26/1/1
f 42/2/1 28/2/1 27/2/1
f 43/1/1 29/1/1 28/1/1
f 43/2/1 28/2/1 42/2/1
f 44/2/1 17/2/1 29/2/1
f 44/1/1 29/1/1 43/1/1
f 45/2/1 36/2/1 35/2/1
f 45/1/1 35/1/1 17/1/1
f 46/1/1 37/1/1 36/1/1
f 46/2/1 36/2/1 45/2/1
f 47/1/1 21/1/1 37/1/1
f 47/1/1 37/1/1 46/1/1
f 47/2/1 38/2/1 21/2/1
f 48/1/1 39/1/1 38/1/1
f 48/2/1 38/2/1 47/2/1
f 49/2/1 24/2/1 39/2/1
f 49/1/1 39/1/1 48/1/1
f 50/1/1 7/1/1 24/1/1
f 50/2/1 24/2/1 49/2/1
f 51/2/1 41/2/1 40/2/1
f 52/2/1 26/2/1 41/2/1
f 52/2/1 41/2/1 51/2/1
f 52/1/1 43/1/1 42/1/1
f 52/1/1 42/1/1 26/1/1
f 53/2/1 44/2/1 43/2/1
f 53/1/1 43/1/1 52/1/1
f 54/1/1 45/1/1 17/1/1
f 54/2/1 44/2/1 53/2/1
f 54/1/1 46/1/1 45/1/1
f 54/2/1 17/2/1 44/2/1
f 54/1/1 48/1/1 47/1/1
f 54/1/1 47/1/1 46/1/1
f 55/1/1 48/1/1 54/1/1
f 56/1/1 48/1/1 55/1/1
f 57/1/1 48/1/1 56/1/1
f 58/1/1 48/1/1 57/1/1
f 59/2/1 49/2/1 48/2/1
f 59/1/1 48/1/1 58/1/1
f 60/1/1 50/1/1 49/1/1
f 60/2/1 49/2/1 59/2/1
f 61/1/1 53/1/1 52/1/1
f 61/1/1 52/1/1 51/1/1
f 61/1/1 54/1/1 53/1/1
f 61/1/1 55/1/1 54/1/1
f 62/1/1 55/1/1 61/1/1
f 63/1/1 55/1/1 62/1/1
f 64/2/1 56/2/1 55/2/1
f 64/1/1 55/1/1 63/1/1
f 65/1/1 57/1/1 56/1/1
f 65/2/1 56/2/1 64/2/1
f 66/2/1 58/2/1 57/2/1
f 66/1/1 57/1/1 65/1/1
f 67/1/1 59/1/1 58/1/1
f 67/2/1 58/2/1 66/2/1
f 67/1/1 60/1/1 59/1/1
f 68/1/1 60/1/1 67/1/1
f 69/2/1 51/2/1 40/2/1
f 69/1/1 40/1/1 4/1/1
f 70/1/1 61/1/1 51/1/1
f 70/2/1 51/2/1 69/2/1
f 71/2/1 62/2/1 61/2/1
f 71/1/1 61/1/1 70/1/1
f 72/1/1 63/1/1 62/1/1
f 72/2/1 62/2/1 71/2/1
f 73/1/1 70/1/1 69/1/1
f 73/2/1 71/2/1 70/2/1
f 74/1/1 72/1/1 71/1/1
f 74/2/1 71/2/1 73/2/1
f 75/1/1 63/1/1 72/1/1
f 75/1/1 72/1/1 74/1/1
f 75/2/1 64/2/1 63/2/1
f 76/1/1 65/1/1 64/1/1
f 76/2/1 64/2/1 75/2/1
f 77/2/1 66/2/1 65/2/1
f 77/1/1 65/1/1 76/1/1
f 78/1/1 67/1/1 66/1/1
f 78/2/1 66/2/1 77/2/1
f 79/2/1 68/2/1 67/2/1
f 79/1/1 67/1/1 78/1/1
f 80/1/1 60/1/1 68/1/1
f 80/2/1 68/2/1 79/2/1
f 81/1/1 3/1/1 1/1/1
f 81/2/1 4/2/1 3/2/1
f 82/1/1 80/1/1 79/1/1
f 82/2/1 4/2/1 81/2/1
f 82/1/1 75/1/1 74/1/1
f 82/1/1 69/1/1 4/1/1
f 82/1/1 73/1/1 69/1/1
f 82/1/1 77/1/1 76/1/1
f 82/1/1 79/1/1 78/1/1
f 82/1/1 74/1/1 73/1/1
f 82/1/1 78/1/1 77/1/1
f 82/1/1 76/1/1 75/1/1
f 83/1/1 60/1/1 80/1/1
f 83/1/1 80/1/1 82/1/1
f 83/1/1 7/1/1 50/1/1
f 83/2/1 8/2/1 7/2/1
f 83/1/1 50/1/1 60/1/1
f 84/1/1 2/1/1 8/1/1
f 84/2/1 8/2/1 83/2/1
f 85/1/1 82/1/1 81/1/1
f 85/1/1 81/1/1 1/1/1
f 85/1/1 84/1/1 83/1/1
f 85/1/1 83/1/1 82/1/1
f 86/1/1 2/1/1 84/1/1
f 86/1/1 84/1/1 85/1/1
f 87/1/2 88/1/2 89/1/2
f 89/1/2 88/1/2 90/1/2
f 93/1/3 92/1/3 91/1/3
f 94/1/3 92/1/3 93/1/3
f 95/1/4 96/1/4 97/1/4
f 97/1/4 96/1/4 98/1/4
f 101/1/5 100/1/5 99/1/5
f 102/1/5 100/1/5 101/1/5
f 103/1/6 104/1/6 105/1/6
f 105/1/6 104/1/6 106/1/6
