# MagicaVoxel @ Ephtracy

# material
mtllib Win.mtl
usemtl palette

# normals
vn -1 0 0
vn 1 0 0
vn 0 0 1
vn 0 0 -1
vn 0 -1 0
vn 0 1 0

# texcoords
vt 0.314453 0.5
vt 0.455078 0.5
vt 0.689453 0.5

# verts
v -2 0 2
v -2 0 -2
v -2 1 2
v -2 1 -2
v -2 2 2
v -2 2 -2
v -1 2 1
v -1 2 -1
v -1 3 1
v -1 3 -1
v 1 2 1
v 1 2 -1
v 1 3 1
v 1 3 -1
v 2 0 2
v 2 0 -2
v 2 1 2
v 2 1 -2
v 2 2 2
v 2 2 -2
v -2 0 2
v -2 1 2
v -2 2 2
v 2 0 2
v 2 1 2
v 2 2 2
v -1 2 1
v -1 3 1
v 1 2 1
v 1 3 1
v -1 2 -1
v -1 3 -1
v 1 2 -1
v 1 3 -1
v -2 0 -2
v -2 1 -2
v -2 2 -2
v 2 0 -2
v 2 1 -2
v 2 2 -2
v -2 0 2
v 2 0 2
v -2 0 -2
v 2 0 -2
v -2 2 2
v 2 2 2
v -1 2 1
v 1 2 1
v -1 2 -1
v 1 2 -1
v -2 2 -2
v 2 2 -2
v -1 3 1
v 1 3 1
v -1 3 -1
v 1 3 -1

# faces
f 3/1/1 2/1/1 1/1/1
f 4/1/1 2/1/1 3/1/1
f 5/3/1 4/3/1 3/3/1
f 6/3/1 4/3/1 5/3/1
f 9/2/1 8/2/1 7/2/1
f 10/2/1 8/2/1 9/2/1
f 11/2/2 12/2/2 13/2/2
f 13/2/2 12/2/2 14/2/2
f 15/1/2 16/1/2 17/1/2
f 17/1/2 16/1/2 18/1/2
f 17/3/2 18/3/2 19/3/2
f 19/3/2 18/3/2 20/3/2
f 24/1/3 22/1/3 21/1/3
f 25/3/3 23/3/3 22/3/3
f 25/1/3 22/1/3 24/1/3
f 26/3/3 23/3/3 25/3/3
f 29/2/3 28/2/3 27/2/3
f 30/2/3 28/2/3 29/2/3
f 31/2/4 32/2/4 33/2/4
f 33/2/4 32/2/4 34/2/4
f 35/1/4 36/1/4 38/1/4
f 36/3/4 37/3/4 39/3/4
f 38/1/4 36/1/4 39/1/4
f 39/3/4 37/3/4 40/3/4
f 43/1/5 42/1/5 41/1/5
f 44/1/5 42/1/5 43/1/5
f 45/3/6 46/3/6 47/3/6
f 47/3/6 46/3/6 48/3/6
f 45/3/6 47/3/6 49/3/6
f 48/3/6 46/3/6 50/3/6
f 45/3/6 49/3/6 51/3/6
f 49/3/6 50/3/6 51/3/6
f 50/3/6 46/3/6 52/3/6
f 51/3/6 50/3/6 52/3/6
f 53/2/6 54/2/6 55/2/6
f 55/2/6 54/2/6 56/2/6
